PathFileType	4	(X/Y/Z)	C:/Users/opensim2020/Desktop/walking_exp_matlab/subject01_walking14_straight_04.trc	
DataRate	CameraRate	NumFrames	NumMarkers	Units	OrigDataRate	OrigDataStartFrame	OrigNumFrames	
100.00	100.00	7	42	mm	100.00	2074	89	
Frame#	Time	LFHD			RFHD			LBHD			RBHD			C7			T10			CLAV			STRN			RBAK			LSHO			LUPA			LELB			LFRM			LWRA			LWRB			LFIN			RSHO			RUPA			RELB			RFRM			RWRA			RWRB			RFIN			LASI			RASI			LPSI			RPSI			LTHI			LKNE			LTIB			LANK			LHEE			LTOE			RTHI			RKNE			RTIB			RANK			RHEE			RTOE			*39			*40			*41			
		X1	Y1	Z1	X2	Y2	Z2	X3	Y3	Z3	X4	Y4	Z4	X5	Y5	Z5	X6	Y6	Z6	X7	Y7	Z7	X8	Y8	Z8	X9	Y9	Z9	X10	Y10	Z10	X11	Y11	Z11	X12	Y12	Z12	X13	Y13	Z13	X14	Y14	Z14	X15	Y15	Z15	X16	Y16	Z16	X17	Y17	Z17	X18	Y18	Z18	X19	Y19	Z19	X20	Y20	Z20	X21	Y21	Z21	X22	Y22	Z22	X23	Y23	Z23	X24	Y24	Z24	X25	Y25	Z25	X26	Y26	Z26	X27	Y27	Z27	X28	Y28	Z28	X29	Y29	Z29	X30	Y30	Z30	X31	Y31	Z31	X32	Y32	Z32	X33	Y33	Z33	X34	Y34	Z34	X35	Y35	Z35	X36	Y36	Z36	X37	Y37	Z37	X38	Y38	Z38	X39	Y39	Z39	X40	Y40	Z40	X41	Y41	Z41	X42	Y42	Z42	

1	0.000	-985.52185	636.89545	1654.23901	-1094.06628	600.21808	1661.49915	-1019.59247	752.40674	1625.23743	-1135.11353	717.55170	1632.31934	-1041.50830	800.70313	1431.33826	-1056.99475	858.97351	1140.69238	-1070.86597	662.41833	1354.75293	-1081.94666	632.77820	1197.84485	-1111.49341	880.78448	1246.38831	-903.91254	691.13959	1388.07031	-815.09955	695.88519	1207.32532	-807.60339	689.68024	1052.74817	-818.15784	588.17383	989.01990	-870.92261	463.66898	963.42377	-848.37817	493.75537	917.48389	-854.19183	411.35983	903.59528	-1202.43652	752.40527	1405.19897	-1289.18811	870.78259	1227.94495	-1302.16614	889.30859	1107.03003	-1342.84302	906.50372	992.92358	-1343.05530	869.58374	853.64154	-1374.61267	914.71747	873.21344	-1385.34583	905.50671	786.72290	-977.18164	682.94568	929.02039	-1194.17578	700.56189	937.55920	-1018.86627	871.64917	941.58960	-1162.86597	880.20392	941.44067	-936.17847	770.02704	596.77820	-956.77032	812.52698	466.15497	-951.59503	905.00739	298.45047	-1013.23608	985.65137	95.05943	-1061.52539	1040.94409	78.80176	-1027.61755	848.02765	37.87421	-1269.23242	662.94806	617.43146	-1254.48035	599.28296	473.24860	-1273.48242	617.45483	299.38300	-1242.63843	585.10168	88.70691	-1188.94287	616.95782	38.95396	-1258.15735	442.68723	76.02741	-1071.85107	611.89691	1695.58521	-3102.01001	1973.11084	1023.58252	-3140.79175	2012.50476	1022.13806 
2	0.010	-988.02881	624.51477	1653.07263	-1096.50903	587.49799	1660.23987	-1022.47815	739.92029	1623.94214	-1137.86121	704.71161	1630.98547	-1044.35938	788.06525	1429.99011	-1059.94250	846.15295	1139.23340	-1073.33765	649.71295	1353.49768	-1083.88831	619.80481	1196.72974	-1114.13391	867.63867	1244.58594	-906.55591	678.69904	1387.31458	-817.18384	682.51996	1207.04504	-808.75720	675.40613	1052.58203	-819.73901	572.44397	991.36462	-873.04944	447.69568	969.02655	-850.36871	476.24448	922.27728	-856.43280	393.40213	910.74896	-1205.14697	739.51013	1403.77441	-1291.41858	859.01624	1226.97229	-1304.86011	878.06598	1106.31018	-1345.60803	896.43890	992.50940	-1345.98352	860.98737	852.81500	-1377.12842	905.93018	872.74933	-1387.87732	897.85895	786.17871	-978.07428	670.70941	927.85040	-1195.12109	685.88324	935.82214	-1022.22369	859.07294	940.72638	-1166.29138	866.02094	940.47467	-936.50519	761.91925	596.58289	-956.86829	805.38062	466.25723	-951.76288	900.19470	299.79056	-1012.60132	984.42548	97.57606	-1060.80029	1039.91858	82.39127	-1027.52893	848.04010	37.88839	-1271.50793	652.88385	614.09283	-1254.58020	585.82538	471.65985	-1274.82800	595.66687	298.13730	-1244.37207	552.81775	88.72741	-1191.55042	583.33472	37.06252	-1257.24231	409.42810	82.72109	-1074.39111	599.16125	1694.50793	-3102.03198	1973.10730	1023.52179	-3140.80737	2012.53210	1022.14642 
3	0.020	-990.74445	612.20331	1651.77307	-1099.11230	574.75995	1658.94531	-1025.49805	727.22003	1622.48181	-1140.80408	691.87933	1629.61304	-1047.35059	775.46564	1428.63110	-1062.91333	833.13129	1137.69751	-1076.02051	636.73975	1352.38635	-1085.81396	606.79181	1195.53564	-1116.98022	854.45917	1242.68945	-909.25543	666.32086	1386.57019	-819.38129	669.12726	1206.73083	-810.26215	660.67859	1052.45593	-821.31793	556.99365	993.30951	-875.09021	432.22308	974.06097	-852.05542	459.51428	926.60309	-858.70050	376.41290	917.36572	-1208.34387	726.52039	1402.17993	-1293.76624	847.09869	1225.96045	-1307.72290	866.51636	1105.46667	-1348.44666	885.91193	991.91046	-1349.06592	851.67554	851.98431	-1380.07788	896.90875	872.35541	-1390.75745	889.45502	785.54437	-979.20520	658.21228	926.80859	-1196.08936	671.08856	934.00586	-1025.72388	846.28333	939.93030	-1169.89575	851.73181	939.54224	-936.96753	753.09222	596.34912	-957.26398	797.53271	466.14053	-951.90137	894.93628	301.19806	-1012.24475	982.70850	100.14315	-1060.04431	1038.65173	86.24182	-1027.42883	847.84753	37.88223	-1274.85974	643.04120	610.95398	-1254.50598	572.20636	470.38626	-1275.78137	575.04517	297.43512	-1245.62329	523.95062	89.42869	-1193.28210	552.77991	36.41490	-1256.29358	380.11368	88.74387	-1076.90027	586.58673	1693.16309	-3101.93823	1973.19556	1023.42816	-3140.71289	2012.56689	1022.14911 
4	0.030	-993.60376	599.81702	1650.62683	-1101.78516	562.06812	1657.64600	-1028.73694	714.91785	1621.29419	-1143.89404	679.01355	1628.19849	-1050.46863	762.86700	1427.25671	-1065.92834	819.99652	1136.14429	-1078.66931	624.02594	1351.13257	-1087.79968	593.71039	1194.36609	-1120.00525	841.30322	1240.77795	-912.11053	653.70898	1385.91528	-821.67737	655.89130	1206.47375	-811.49213	646.94940	1052.65344	-822.74445	541.68201	995.59113	-877.07275	417.23184	978.52301	-853.62195	443.42685	930.55896	-860.49390	360.21078	923.44647	-1211.19666	713.53326	1400.45251	-1296.23621	834.92407	1224.80994	-1310.68079	854.65881	1104.43909	-1351.48206	874.95856	991.12555	-1352.28491	841.68268	851.08368	-1382.98682	886.82709	871.61951	-1393.77795	880.32794	784.80682	-979.74762	646.12500	925.55420	-1197.24377	656.19421	932.22687	-1029.22327	833.22748	939.10925	-1173.62805	837.21393	938.55341	-937.61041	743.52264	596.10144	-957.71161	789.10693	465.96579	-952.03003	889.37390	302.81448	-1011.41656	981.17554	103.29008	-1059.32190	1037.08594	90.38502	-1027.24207	847.74438	37.82886	-1277.50024	632.17255	608.19702	-1254.57422	558.63440	469.09955	-1276.18872	555.82227	296.70715	-1246.03296	498.53238	90.17963	-1193.90881	526.16602	36.10128	-1255.33093	354.23984	93.24006	-1079.69836	573.96729	1691.87134	-3101.95190	1973.21863	1023.55408	-3140.61475	2012.58484	1022.26764 
5	0.040	-996.44727	587.54517	1649.51379	-1104.62720	549.31592	1656.40601	-1032.11206	702.48584	1620.10205	-1147.16150	666.10883	1626.83557	-1053.63708	750.24548	1425.91003	-1068.92383	806.67993	1134.56116	-1081.13342	611.31128	1349.93494	-1089.81897	580.50702	1193.32373	-1123.17651	828.07538	1238.92639	-914.92639	641.57446	1385.08887	-823.94629	642.82690	1206.29810	-812.71466	633.38367	1052.63379	-824.27332	527.49805	997.21979	-878.94214	402.81470	982.27228	-855.12231	427.89029	934.04602	-862.37872	344.60361	928.56427	-1214.44226	700.50024	1398.90356	-1298.83752	822.46558	1223.50659	-1313.57104	842.31366	1103.15198	-1354.53137	863.53009	990.19733	-1355.75378	831.47675	849.92688	-1386.33594	876.32526	870.83716	-1396.99170	870.45441	783.94434	-980.83722	633.39746	924.36249	-1198.41272	641.22009	930.35229	-1032.73413	820.03119	938.30310	-1177.38293	822.55603	937.53394	-938.53265	733.15173	595.60065	-958.20575	779.70105	465.76544	-952.20380	883.30823	304.46838	-1010.77148	979.00348	106.57513	-1058.36353	1035.30310	95.21224	-1027.16919	847.63348	37.85576	-1279.53955	619.73645	606.07947	-1254.88293	545.03748	468.21762	-1276.10815	538.32306	295.73813	-1245.38696	476.73740	90.24307	-1193.33533	503.50763	35.83249	-1254.21484	332.06015	95.81540	-1082.66150	561.38959	1690.66040	-3101.93872	1973.23291	1023.81641	-3140.68823	2012.51807	1022.07922 
6	0.050	-999.56470	575.30353	1648.49170	-1107.49707	536.60675	1655.24243	-1035.65112	690.02716	1618.98328	-1150.59473	653.16797	1625.57532	-1056.95789	737.69067	1424.64600	-1071.90479	793.31128	1133.06787	-1084.06702	598.39282	1348.91553	-1091.99390	567.20734	1192.30432	-1126.40747	814.80499	1237.14185	-917.81854	629.28448	1384.54297	-826.33685	629.99237	1206.16321	-814.13306	619.96399	1052.62549	-825.63647	513.63177	998.83252	-880.82660	388.93915	985.38409	-856.72198	412.97003	937.16046	-863.74969	329.57959	932.77789	-1217.38513	687.46082	1397.29529	-1301.62732	809.64240	1222.07605	-1316.83777	829.71814	1101.94727	-1357.78357	851.54193	989.16779	-1359.20300	820.10681	848.68079	-1389.34912	865.19592	869.82825	-1400.41907	859.79974	782.93054	-982.18970	620.36548	923.35492	-1199.63367	626.15723	928.58002	-1036.22852	806.60016	937.49573	-1180.99841	807.77661	936.44275	-939.49023	721.69012	594.92352	-958.87054	769.30316	465.39493	-952.38678	876.44800	306.23538	-1009.97681	976.73969	110.04114	-1057.52026	1032.95325	100.37074	-1026.96277	847.24109	38.04276	-1280.73157	605.48999	604.54803	-1255.34753	531.06445	467.26822	-1275.54602	522.41626	294.30560	-1244.10632	458.79446	89.53795	-1191.66333	484.34784	34.97335	-1252.77551	313.74112	95.89023	-1085.73706	548.79169	1689.52234	-3101.82666	1973.10986	1023.48322	-3140.69922	2012.54224	1022.10425 
7	0.060	-1002.71130	563.03461	1647.60657	-1110.58020	523.83929	1654.25232	-1039.34412	677.65204	1617.97937	-1154.10010	640.16656	1624.40137	-1060.46021	724.99512	1423.43713	-1074.83569	779.69141	1131.62500	-1086.98389	585.65955	1347.81934	-1094.20435	553.80212	1191.38770	-1129.67639	801.45850	1235.54980	-920.80475	616.88629	1384.13940	-828.76379	617.36707	1206.18726	-815.41821	607.00513	1052.81213	-826.88251	499.90277	1000.01050	-882.53821	375.55936	987.88428	-857.97516	398.91364	939.50830	-865.26080	315.44818	936.16504	-1220.73682	674.39893	1395.79541	-1304.55408	796.50616	1220.51392	-1319.86401	816.37488	1100.39221	-1361.07507	838.92700	988.02051	-1362.70154	808.32239	847.37122	-1392.53088	853.39795	868.79083	-1404.16187	848.47308	782.01086	-983.57971	606.98694	922.39404	-1200.89258	611.01495	927.10724	-1039.54688	792.88000	936.60291	-1184.29602	792.85864	935.42627	-940.59222	709.38586	594.30457	-959.42358	757.87097	464.98996	-952.62012	868.75293	308.12485	-1009.11108	973.99323	114.10479	-1056.54248	1030.17749	106.10502	-1026.83923	846.95013	38.04376	-1281.42554	589.86353	603.74469	-1255.78650	516.59363	465.81787	-1274.82568	507.98929	292.50153	-1242.05164	444.56046	87.83875	-1188.78125	470.45462	34.07793	-1251.17761	299.27954	93.70595	-1088.81885	536.14819	1688.50330	-3101.94995	1973.20178	1023.52753	-3140.66650	2012.59070	1022.14935 
